# xmcd
#
# Track frame offsets:
#	150
#	17732
#	32436
#	48507
#	63722
#	77531
#	91157
#	105327
#	121213
#	135660
#	152005
#	166945
#	179444
#	195256
#
# Disc length: 2775 seconds
#
# Revision: 1
# Processed by: cddbd v1.5.1PL0 Copyright (c) Steve Scherf et al.
# Submitted via: audiograbber 1.83.01
#
DISCID=a30ad50e
DTITLE=PETRÚCIO AMORIM - BEBENDO DA FONTE
DYEAR=1900
DGENRE=FORRÓ
TTITLE0=QUE NEM DOCE NO TACHO
TTITLE1=FORRÓ DO SAPATEIRO
TTITLE2=CORAÇÃO MENINO
TTITLE3=NO SANGUE E NO SUOR
TTITLE4=TEU AMOR
TTITLE5=NA PENA DO BEIJA-FLOR
TTITLE6=NO BATENTE DA JANELA
TTITLE7=O BEIJO E A BRONCA
TTITLE8=SE PUXAR AO PAI
TTITLE9=LAVAS DE UM VULCÃO
TTITLE10=O ROSTO DA SOLIDÃO
TTITLE11=A BANDINHA
TTITLE12=PROCURANDO
TTITLE13=NÃO SAI, NÃO SAI
EXTD=
EXTT0=
EXTT1=
EXTT2=
EXTT3=
EXTT4=
EXTT5=
EXTT6=
EXTT7=
EXTT8=
EXTT9=
EXTT10=
EXTT11=
EXTT12=
EXTT13=
PLAYORDER=
